<svg width="184" height="40" viewBox="0 0 184 40" fill="none" xmlns="http://www.w3.org/2000/svg">
<rect x="0.5" y="0.5" width="182.47" height="39" rx="19.5" stroke="#0099A3"/>
<g clip-path="url(#clip0_325_2433)">
<g clip-path="url(#clip1_325_2433)">
<g clip-path="url(#clip2_325_2433)">
<path d="M25 30C30.5228 30 35 25.5228 35 20C35 14.4772 30.5228 10 25 10C19.4772 10 15 14.4772 15 20C15 25.5228 19.4772 30 25 30Z" fill="#0099A3"/>
</g>
</g>
</g>
<path d="M47.101 25V24.0652L50.6119 20.2219C51.0239 19.7718 51.3632 19.3806 51.6298 19.0482C51.8964 18.7124 52.0938 18.3973 52.2219 18.103C52.3534 17.8052 52.4192 17.4936 52.4192 17.1681C52.4192 16.7942 52.3292 16.4705 52.1491 16.197C51.9726 15.9234 51.7302 15.7122 51.4221 15.5633C51.1139 15.4145 50.7677 15.34 50.3833 15.34C49.9748 15.34 49.6182 15.4248 49.3135 15.5945C49.0123 15.7607 48.7785 15.9944 48.6123 16.2956C48.4496 16.5969 48.3683 16.95 48.3683 17.3551H47.1426C47.1426 16.7319 47.2863 16.1848 47.5736 15.714C47.861 15.2431 48.2523 14.8761 48.7474 14.6129C49.246 14.3498 49.8051 14.2182 50.4249 14.2182C51.0481 14.2182 51.6004 14.3498 52.0816 14.6129C52.5629 14.8761 52.9403 15.231 53.2138 15.6776C53.4873 16.1242 53.6241 16.6211 53.6241 17.1681C53.6241 17.5594 53.5531 17.942 53.4112 18.3159C53.2727 18.6864 53.0303 19.1001 52.6841 19.5572C52.3413 20.0107 51.8652 20.5647 51.2559 21.2191L48.8668 23.7743V23.8574H53.8111V25H47.101ZM60.2471 19.1105V20.2531H55.5937V19.1105H60.2471ZM65.5055 25.1454C64.8199 25.1454 64.2088 25.0277 63.6722 24.7923C63.139 24.5568 62.7148 24.2296 62.3997 23.8107C62.0881 23.3883 61.9185 22.8983 61.8908 22.3409H63.1995C63.2272 22.6837 63.345 22.9797 63.5527 23.229C63.7605 23.4748 64.0322 23.6653 64.3681 23.8003C64.7039 23.9353 65.0761 24.0028 65.4847 24.0028C65.9417 24.0028 66.3468 23.9232 66.7 23.7639C67.0532 23.6047 67.3301 23.3831 67.531 23.0992C67.7318 22.8153 67.8322 22.4863 67.8322 22.1124C67.8322 21.7211 67.7352 21.3766 67.5413 21.0789C67.3475 20.7777 67.0635 20.5422 66.6896 20.3726C66.3157 20.2029 65.8586 20.1181 65.3185 20.1181H64.4668V18.9755H65.3185C65.7409 18.9755 66.1114 18.8993 66.4299 18.747C66.7519 18.5946 67.0029 18.38 67.183 18.103C67.3665 17.826 67.4582 17.5005 67.4582 17.1266C67.4582 16.7665 67.3786 16.4532 67.2193 16.1866C67.0601 15.92 66.835 15.7122 66.5442 15.5633C66.2568 15.4145 65.9175 15.34 65.5263 15.34C65.1592 15.34 64.813 15.4075 64.4875 15.5426C64.1655 15.6741 63.9024 15.8663 63.6981 16.1191C63.4938 16.3683 63.3831 16.6696 63.3657 17.0227H62.1193C62.1401 16.4653 62.308 15.9771 62.6231 15.5581C62.9381 15.1357 63.3502 14.8068 63.8591 14.5714C64.3716 14.3359 64.9342 14.2182 65.547 14.2182C66.2049 14.2182 66.7692 14.3515 67.2401 14.6181C67.711 14.8813 68.0728 15.2292 68.3256 15.662C68.5783 16.0948 68.7047 16.5622 68.7047 17.0643C68.7047 17.6633 68.5472 18.174 68.2321 18.5964C67.9205 19.0188 67.4963 19.3113 66.9597 19.4741V19.5572C67.6314 19.668 68.1559 19.9536 68.5333 20.4141C68.9107 20.8711 69.0994 21.4372 69.0994 22.1124C69.0994 22.6906 68.9419 23.21 68.6268 23.6705C68.3152 24.1275 67.8893 24.4876 67.3492 24.7507C66.8091 25.0138 66.1945 25.1454 65.5055 25.1454ZM74.9238 25V14.3636H76.1495V18.2899H76.2534C76.3434 18.1515 76.468 17.9749 76.6273 17.7602C76.79 17.5421 77.022 17.3482 77.3232 17.1785C77.6279 17.0054 78.0399 16.9189 78.5593 16.9189C79.231 16.9189 79.823 17.0868 80.3355 17.4226C80.8479 17.7585 81.2478 18.2346 81.5352 18.8509C81.8226 19.4672 81.9662 20.1942 81.9662 21.0321C81.9662 21.877 81.8226 22.6092 81.5352 23.229C81.2478 23.8453 80.8496 24.3231 80.3407 24.6624C79.8317 24.9983 79.2448 25.1662 78.5801 25.1662C78.0676 25.1662 77.6573 25.0814 77.3492 24.9117C77.041 24.7386 76.8039 24.543 76.6377 24.3248C76.4715 24.1032 76.3434 23.9197 76.2534 23.7743H76.1079V25H74.9238ZM76.1287 21.0114C76.1287 21.6138 76.217 22.1453 76.3936 22.6058C76.5702 23.0628 76.8281 23.4212 77.1674 23.6808C77.5067 23.9371 77.9222 24.0652 78.4139 24.0652C78.9263 24.0652 79.3539 23.9301 79.6967 23.6601C80.0429 23.3865 80.3026 23.0195 80.4757 22.559C80.6523 22.0951 80.7406 21.5792 80.7406 21.0114C80.7406 20.4505 80.654 19.945 80.4809 19.4949C80.3112 19.0413 80.0533 18.6829 79.7071 18.4198C79.3643 18.1532 78.9332 18.0199 78.4139 18.0199C77.9153 18.0199 77.4963 18.1463 77.157 18.399C76.8177 18.6483 76.5615 18.998 76.3884 19.4481C76.2153 19.8948 76.1287 20.4158 76.1287 21.0114ZM88.5685 21.7385V17.0227H89.7941V25H88.5685V23.6497H88.4854C88.2984 24.0548 88.0076 24.3993 87.6128 24.6832C87.2181 24.9636 86.7196 25.1039 86.1171 25.1039C85.6185 25.1039 85.1753 24.9948 84.7876 24.7767C84.3998 24.5551 84.0951 24.2227 83.8735 23.7795C83.6519 23.3329 83.5411 22.7702 83.5411 22.0916V17.0227H84.7668V22.0085C84.7668 22.5902 84.9295 23.0542 85.255 23.4004C85.5839 23.7466 86.0029 23.9197 86.5118 23.9197C86.8165 23.9197 87.1264 23.8418 87.4415 23.686C87.76 23.5302 88.0266 23.2913 88.2413 22.9693C88.4594 22.6473 88.5685 22.237 88.5685 21.7385ZM97.3896 18.8093L96.2886 19.1209C96.2193 18.9374 96.1172 18.7591 95.9822 18.586C95.8506 18.4094 95.6705 18.264 95.442 18.1497C95.2135 18.0355 94.9209 17.9783 94.5643 17.9783C94.0761 17.9783 93.6693 18.0909 93.3438 18.3159C93.0218 18.5375 92.8608 18.8197 92.8608 19.1625C92.8608 19.4672 92.9716 19.7078 93.1932 19.8844C93.4148 20.0609 93.7611 20.2081 94.2319 20.3258L95.4161 20.6167C96.1293 20.7898 96.6608 21.0546 97.0105 21.4113C97.3602 21.7644 97.535 22.2197 97.535 22.7772C97.535 23.2342 97.4035 23.6428 97.1403 24.0028C96.8806 24.3629 96.5171 24.6468 96.0497 24.8546C95.5823 25.0623 95.0387 25.1662 94.4189 25.1662C93.6053 25.1662 92.9318 24.9896 92.3986 24.6365C91.8654 24.2833 91.5278 23.7674 91.3859 23.0888L92.5492 22.7979C92.66 23.2273 92.8695 23.5493 93.1777 23.7639C93.4893 23.9786 93.8961 24.0859 94.3981 24.0859C94.9694 24.0859 95.423 23.9648 95.7588 23.7224C96.0981 23.4766 96.2678 23.1823 96.2678 22.8395C96.2678 22.5625 96.1709 22.3305 95.977 22.1436C95.7831 21.9531 95.4853 21.8112 95.0837 21.7177L93.7541 21.4061C93.0236 21.233 92.4869 20.9646 92.1441 20.6011C91.8048 20.2341 91.6352 19.7753 91.6352 19.2248C91.6352 18.7747 91.7615 18.3765 92.0143 18.0303C92.2705 17.684 92.6185 17.4122 93.0582 17.2149C93.5014 17.0175 94.0034 16.9189 94.5643 16.9189C95.3537 16.9189 95.9735 17.092 96.4236 17.4382C96.8772 17.7844 97.1992 18.2415 97.3896 18.8093ZM99.08 25V17.0227H100.306V25H99.08ZM99.7033 15.6932C99.4644 15.6932 99.2583 15.6118 99.0852 15.4491C98.9156 15.2864 98.8307 15.0907 98.8307 14.8622C98.8307 14.6337 98.9156 14.4381 99.0852 14.2753C99.2583 14.1126 99.4644 14.0312 99.7033 14.0312C99.9422 14.0312 100.146 14.1126 100.316 14.2753C100.489 14.4381 100.576 14.6337 100.576 14.8622C100.576 15.0907 100.489 15.2864 100.316 15.4491C100.146 15.6118 99.9422 15.6932 99.7033 15.6932ZM103.476 20.2012V25H102.251V17.0227H103.435V18.2692H103.539C103.726 17.8641 104.009 17.5386 104.39 17.2928C104.771 17.0435 105.263 16.9189 105.865 16.9189C106.405 16.9189 106.878 17.0297 107.283 17.2512C107.688 17.4694 108.003 17.8018 108.228 18.2484C108.453 18.6916 108.566 19.2525 108.566 19.9311V25H107.34V20.0142C107.34 19.3875 107.178 18.8993 106.852 18.5496C106.527 18.1965 106.08 18.0199 105.512 18.0199C105.121 18.0199 104.771 18.1047 104.463 18.2744C104.158 18.444 103.918 18.6916 103.741 19.017C103.565 19.3425 103.476 19.7372 103.476 20.2012ZM113.85 25.1662C113.082 25.1662 112.419 24.9965 111.861 24.6572C111.307 24.3145 110.88 23.8366 110.578 23.2238C110.281 22.6075 110.132 21.8908 110.132 21.0737C110.132 20.2566 110.281 19.5364 110.578 18.9132C110.88 18.2865 111.299 17.7983 111.835 17.4486C112.375 17.0954 113.005 16.9189 113.726 16.9189C114.141 16.9189 114.551 16.9881 114.957 17.1266C115.362 17.2651 115.73 17.4901 116.063 17.8018C116.395 18.1099 116.66 18.5185 116.857 19.0274C117.055 19.5364 117.153 20.1631 117.153 20.9075V21.4268H111.004V20.3674H115.907C115.907 19.9173 115.817 19.5156 115.637 19.1625C115.46 18.8093 115.208 18.5306 114.879 18.3263C114.553 18.122 114.169 18.0199 113.726 18.0199C113.237 18.0199 112.815 18.1411 112.458 18.3834C112.105 18.6223 111.833 18.9339 111.643 19.3183C111.453 19.7026 111.357 20.1146 111.357 20.5543V21.2607C111.357 21.8631 111.461 22.3738 111.669 22.7927C111.88 23.2082 112.173 23.525 112.547 23.7432C112.921 23.9578 113.355 24.0652 113.85 24.0652C114.172 24.0652 114.463 24.0202 114.723 23.9301C114.986 23.8366 115.213 23.6982 115.403 23.5146C115.594 23.3277 115.741 23.0957 115.845 22.8187L117.029 23.1511C116.904 23.5527 116.695 23.9059 116.4 24.2106C116.106 24.5118 115.742 24.7472 115.31 24.9169C114.877 25.0831 114.39 25.1662 113.85 25.1662ZM124.368 18.8093L123.267 19.1209C123.198 18.9374 123.096 18.7591 122.961 18.586C122.829 18.4094 122.649 18.264 122.421 18.1497C122.192 18.0355 121.9 17.9783 121.543 17.9783C121.055 17.9783 120.648 18.0909 120.323 18.3159C120.001 18.5375 119.84 18.8197 119.84 19.1625C119.84 19.4672 119.95 19.7078 120.172 19.8844C120.394 20.0609 120.74 20.2081 121.211 20.3258L122.395 20.6167C123.108 20.7898 123.64 21.0546 123.989 21.4113C124.339 21.7644 124.514 22.2197 124.514 22.7772C124.514 23.2342 124.382 23.6428 124.119 24.0028C123.859 24.3629 123.496 24.6468 123.029 24.8546C122.561 25.0623 122.018 25.1662 121.398 25.1662C120.584 25.1662 119.911 24.9896 119.377 24.6365C118.844 24.2833 118.507 23.7674 118.365 23.0888L119.528 22.7979C119.639 23.2273 119.848 23.5493 120.156 23.7639C120.468 23.9786 120.875 24.0859 121.377 24.0859C121.948 24.0859 122.402 23.9648 122.738 23.7224C123.077 23.4766 123.247 23.1823 123.247 22.8395C123.247 22.5625 123.15 22.3305 122.956 22.1436C122.762 21.9531 122.464 21.8112 122.063 21.7177L120.733 21.4061C120.002 21.233 119.466 20.9646 119.123 20.6011C118.784 20.2341 118.614 19.7753 118.614 19.2248C118.614 18.7747 118.74 18.3765 118.993 18.0303C119.249 17.684 119.597 17.4122 120.037 17.2149C120.48 17.0175 120.982 16.9189 121.543 16.9189C122.333 16.9189 122.952 17.092 123.402 17.4382C123.856 17.7844 124.178 18.2415 124.368 18.8093ZM131.709 18.8093L130.608 19.1209C130.539 18.9374 130.437 18.7591 130.302 18.586C130.17 18.4094 129.99 18.264 129.762 18.1497C129.533 18.0355 129.241 17.9783 128.884 17.9783C128.396 17.9783 127.989 18.0909 127.664 18.3159C127.342 18.5375 127.181 18.8197 127.181 19.1625C127.181 19.4672 127.291 19.7078 127.513 19.8844C127.735 20.0609 128.081 20.2081 128.552 20.3258L129.736 20.6167C130.449 20.7898 130.981 21.0546 131.33 21.4113C131.68 21.7644 131.855 22.2197 131.855 22.7772C131.855 23.2342 131.723 23.6428 131.46 24.0028C131.2 24.3629 130.837 24.6468 130.369 24.8546C129.902 25.0623 129.358 25.1662 128.739 25.1662C127.925 25.1662 127.252 24.9896 126.718 24.6365C126.185 24.2833 125.848 23.7674 125.706 23.0888L126.869 22.7979C126.98 23.2273 127.189 23.5493 127.497 23.7639C127.809 23.9786 128.216 24.0859 128.718 24.0859C129.289 24.0859 129.743 23.9648 130.079 23.7224C130.418 23.4766 130.588 23.1823 130.588 22.8395C130.588 22.5625 130.491 22.3305 130.297 22.1436C130.103 21.9531 129.805 21.8112 129.403 21.7177L128.074 21.4061C127.343 21.233 126.807 20.9646 126.464 20.6011C126.125 20.2341 125.955 19.7753 125.955 19.2248C125.955 18.7747 126.081 18.3765 126.334 18.0303C126.59 17.684 126.938 17.4122 127.378 17.2149C127.821 17.0175 128.323 16.9189 128.884 16.9189C129.674 16.9189 130.293 17.092 130.743 17.4382C131.197 17.7844 131.519 18.2415 131.709 18.8093ZM140.225 25.1662C139.561 25.1662 138.974 24.9983 138.465 24.6624C137.956 24.3231 137.558 23.8453 137.27 23.229C136.983 22.6092 136.839 21.877 136.839 21.0321C136.839 20.1942 136.983 19.4672 137.27 18.8509C137.558 18.2346 137.958 17.7585 138.47 17.4226C138.982 17.0868 139.574 16.9189 140.246 16.9189C140.766 16.9189 141.176 17.0054 141.477 17.1785C141.782 17.3482 142.014 17.5421 142.173 17.7602C142.336 17.9749 142.462 18.1515 142.552 18.2899H142.656V14.3636H143.882V25H142.698V23.7743H142.552C142.462 23.9197 142.334 24.1032 142.168 24.3248C142.002 24.543 141.764 24.7386 141.456 24.9117C141.148 25.0814 140.738 25.1662 140.225 25.1662ZM140.392 24.0652C140.883 24.0652 141.299 23.9371 141.638 23.6808C141.977 23.4212 142.235 23.0628 142.412 22.6058C142.588 22.1453 142.677 21.6138 142.677 21.0114C142.677 20.4158 142.59 19.8948 142.417 19.4481C142.244 18.998 141.988 18.6483 141.648 18.399C141.309 18.1463 140.89 18.0199 140.392 18.0199C139.872 18.0199 139.439 18.1532 139.093 18.4198C138.75 18.6829 138.492 19.0413 138.319 19.4949C138.15 19.945 138.065 20.4505 138.065 21.0114C138.065 21.5792 138.151 22.0951 138.325 22.559C138.501 23.0195 138.761 23.3865 139.104 23.6601C139.45 23.9301 139.879 24.0652 140.392 24.0652ZM148.344 25.187C147.839 25.187 147.38 25.0918 146.968 24.9013C146.556 24.7074 146.229 24.4287 145.986 24.0652C145.744 23.6982 145.623 23.255 145.623 22.7356C145.623 22.2786 145.713 21.9081 145.893 21.6242C146.073 21.3368 146.313 21.1118 146.615 20.949C146.916 20.7863 147.248 20.6651 147.612 20.5855C147.979 20.5024 148.348 20.4366 148.718 20.3881C149.203 20.3258 149.596 20.2791 149.897 20.2479C150.202 20.2133 150.423 20.1562 150.562 20.0765C150.704 19.9969 150.775 19.8584 150.775 19.661V19.6195C150.775 19.1071 150.634 18.7089 150.354 18.425C150.077 18.1411 149.656 17.9991 149.092 17.9991C148.507 17.9991 148.048 18.1272 147.716 18.3834C147.383 18.6396 147.15 18.9132 147.015 19.204L145.851 18.7885C146.059 18.3038 146.336 17.9264 146.682 17.6563C147.032 17.3828 147.413 17.1924 147.825 17.085C148.24 16.9743 148.649 16.9189 149.05 16.9189C149.307 16.9189 149.601 16.95 149.933 17.0123C150.269 17.0712 150.593 17.1941 150.905 17.3811C151.22 17.568 151.481 17.8502 151.689 18.2276C151.896 18.605 152 19.1105 152 19.7441V25H150.775V23.9197H150.712C150.629 24.0929 150.491 24.2781 150.297 24.4755C150.103 24.6728 149.845 24.8407 149.523 24.9792C149.201 25.1177 148.808 25.187 148.344 25.187ZM148.531 24.0859C149.016 24.0859 149.424 23.9907 149.757 23.8003C150.093 23.6099 150.345 23.364 150.515 23.0628C150.688 22.7616 150.775 22.4448 150.775 22.1124V20.9906C150.723 21.0529 150.608 21.11 150.432 21.162C150.259 21.2104 150.058 21.2537 149.829 21.2918C149.604 21.3264 149.385 21.3576 149.17 21.3853C148.959 21.4095 148.787 21.4303 148.656 21.4476C148.337 21.4892 148.039 21.5567 147.762 21.6502C147.489 21.7402 147.267 21.877 147.098 22.0605C146.931 22.2405 146.848 22.4863 146.848 22.7979C146.848 23.2238 147.006 23.5458 147.321 23.7639C147.64 23.9786 148.043 24.0859 148.531 24.0859ZM154.441 27.9915C154.234 27.9915 154.048 27.9742 153.886 27.9395C153.723 27.9084 153.61 27.8772 153.548 27.8461L153.86 26.7658C154.157 26.842 154.42 26.8697 154.649 26.8489C154.878 26.8281 155.08 26.726 155.257 26.5425C155.437 26.3624 155.601 26.0699 155.75 25.6648L155.979 25.0415L153.029 17.0227H154.358L156.56 23.3796H156.643L158.845 17.0227H160.175L156.789 26.1634C156.636 26.5754 156.448 26.9164 156.223 27.1865C155.998 27.46 155.736 27.6626 155.438 27.7941C155.144 27.9257 154.812 27.9915 154.441 27.9915ZM167.143 18.8093L166.042 19.1209C165.973 18.9374 165.871 18.7591 165.736 18.586C165.604 18.4094 165.424 18.264 165.196 18.1497C164.967 18.0355 164.675 17.9783 164.318 17.9783C163.83 17.9783 163.423 18.0909 163.098 18.3159C162.776 18.5375 162.615 18.8197 162.615 19.1625C162.615 19.4672 162.725 19.7078 162.947 19.8844C163.168 20.0609 163.515 20.2081 163.986 20.3258L165.17 20.6167C165.883 20.7898 166.414 21.0546 166.764 21.4113C167.114 21.7644 167.289 22.2197 167.289 22.7772C167.289 23.2342 167.157 23.6428 166.894 24.0028C166.634 24.3629 166.271 24.6468 165.803 24.8546C165.336 25.0623 164.792 25.1662 164.173 25.1662C163.359 25.1662 162.685 24.9896 162.152 24.6365C161.619 24.2833 161.281 23.7674 161.14 23.0888L162.303 22.7979C162.414 23.2273 162.623 23.5493 162.931 23.7639C163.243 23.9786 163.65 24.0859 164.152 24.0859C164.723 24.0859 165.177 23.9648 165.512 23.7224C165.852 23.4766 166.021 23.1823 166.021 22.8395C166.021 22.5625 165.925 22.3305 165.731 22.1436C165.537 21.9531 165.239 21.8112 164.837 21.7177L163.508 21.4061C162.777 21.233 162.241 20.9646 161.898 20.6011C161.558 20.2341 161.389 19.7753 161.389 19.2248C161.389 18.7747 161.515 18.3765 161.768 18.0303C162.024 17.684 162.372 17.4122 162.812 17.2149C163.255 17.0175 163.757 16.9189 164.318 16.9189C165.107 16.9189 165.727 17.092 166.177 17.4382C166.631 17.7844 166.953 18.2415 167.143 18.8093Z" fill="#0099A3"/>
<defs>
<clipPath id="clip0_325_2433">
<rect width="20" height="20" fill="white" transform="translate(15 10)"/>
</clipPath>
<clipPath id="clip1_325_2433">
<rect width="20" height="20" fill="white" transform="translate(15 10)"/>
</clipPath>
<clipPath id="clip2_325_2433">
<rect width="20" height="20" fill="white" transform="translate(15 10)"/>
</clipPath>
</defs>
</svg>
