<svg width="40" height="41" viewBox="0 0 40 41" fill="none" xmlns="http://www.w3.org/2000/svg">
<g clip-path="url(#clip0_325_2400)">
<g clip-path="url(#clip1_325_2400)">
<g clip-path="url(#clip2_325_2400)">
<path d="M20.125 28.1321C24.2671 28.1321 27.625 24.7742 27.625 20.6321C27.625 16.4899 24.2671 13.1321 20.125 13.1321C15.9829 13.1321 12.625 16.4899 12.625 20.6321C12.625 24.7742 15.9829 28.1321 20.125 28.1321Z" fill="#0099A3"/>
<path d="M20.125 39.6321C30.6184 39.6321 39.125 31.1255 39.125 20.6321C39.125 10.1387 30.6184 1.63208 20.125 1.63208C9.63159 1.63208 1.125 10.1387 1.125 20.6321C1.125 31.1255 9.63159 39.6321 20.125 39.6321Z" stroke="#0099A3"/>
</g>
</g>
</g>
<defs>
<clipPath id="clip0_325_2400">
<rect width="40" height="40" fill="white" transform="translate(0 0.300049)"/>
</clipPath>
<clipPath id="clip1_325_2400">
<rect width="40" height="40" fill="white" transform="translate(0 0.300049)"/>
</clipPath>
<clipPath id="clip2_325_2400">
<rect width="40" height="40" fill="white" transform="translate(0 0.300049)"/>
</clipPath>
</defs>
</svg>
