<svg width="29" height="29" viewBox="0 0 29 29" fill="none" xmlns="http://www.w3.org/2000/svg">
<g opacity="0.5" clip-path="url(#clip0_325_2406)">
<g clip-path="url(#clip1_325_2406)">
<g clip-path="url(#clip2_325_2406)">
<path d="M14.8379 19.7825C17.7374 19.7825 20.0879 17.432 20.0879 14.5325C20.0879 11.633 17.7374 9.28247 14.8379 9.28247C11.9384 9.28247 9.58789 11.633 9.58789 14.5325C9.58789 17.432 11.9384 19.7825 14.8379 19.7825Z" fill="#0099A3"/>
<path d="M14.8371 27.8324C22.1825 27.8324 28.1371 21.8778 28.1371 14.5324C28.1371 7.18703 22.1825 1.23242 14.8371 1.23242C7.49172 1.23242 1.53711 7.18703 1.53711 14.5324C1.53711 21.8778 7.49172 27.8324 14.8371 27.8324Z" stroke="#0099A3" stroke-width="0.7"/>
</g>
</g>
</g>
<defs>
<clipPath id="clip0_325_2406">
<rect width="28" height="28" fill="white" transform="translate(0.75 0.300049)"/>
</clipPath>
<clipPath id="clip1_325_2406">
<rect width="28" height="28" fill="white" transform="translate(0.75 0.300049)"/>
</clipPath>
<clipPath id="clip2_325_2406">
<rect width="28" height="28" fill="white" transform="translate(0.75 0.300049)"/>
</clipPath>
</defs>
</svg>
