<svg width="29" height="29" viewBox="0 0 29 29" fill="none" xmlns="http://www.w3.org/2000/svg">
<g opacity="0.5" clip-path="url(#clip0_325_2412)">
<g clip-path="url(#clip1_325_2412)">
<g clip-path="url(#clip2_325_2412)">
<path d="M14.5879 19.7825C17.4874 19.7825 19.8379 17.432 19.8379 14.5325C19.8379 11.633 17.4874 9.28247 14.5879 9.28247C11.6884 9.28247 9.33789 11.633 9.33789 14.5325C9.33789 17.432 11.6884 19.7825 14.5879 19.7825Z" fill="#0099A3"/>
<path d="M14.5871 27.8324C21.9325 27.8324 27.8871 21.8778 27.8871 14.5324C27.8871 7.18703 21.9325 1.23242 14.5871 1.23242C7.24172 1.23242 1.28711 7.18703 1.28711 14.5324C1.28711 21.8778 7.24172 27.8324 14.5871 27.8324Z" stroke="#0099A3" stroke-width="0.7"/>
</g>
</g>
</g>
<defs>
<clipPath id="clip0_325_2412">
<rect width="28" height="28" fill="white" transform="translate(0.5 0.300049)"/>
</clipPath>
<clipPath id="clip1_325_2412">
<rect width="28" height="28" fill="white" transform="translate(0.5 0.300049)"/>
</clipPath>
<clipPath id="clip2_325_2412">
<rect width="28" height="28" fill="white" transform="translate(0.5 0.300049)"/>
</clipPath>
</defs>
</svg>
