<svg width="29" height="29" viewBox="0 0 29 29" fill="none" xmlns="http://www.w3.org/2000/svg">
<g clip-path="url(#clip0_325_2419)">
<g clip-path="url(#clip1_325_2419)">
<path d="M14.3379 19.7825C17.2374 19.7825 19.5879 17.432 19.5879 14.5325C19.5879 11.633 17.2374 9.28247 14.3379 9.28247C11.4384 9.28247 9.08789 11.633 9.08789 14.5325C9.08789 17.432 11.4384 19.7825 14.3379 19.7825Z" fill="#0099A3"/>
<path d="M14.3371 27.8324C21.6825 27.8324 27.6371 21.8778 27.6371 14.5324C27.6371 7.18703 21.6825 1.23242 14.3371 1.23242C6.99172 1.23242 1.03711 7.18703 1.03711 14.5324C1.03711 21.8778 6.99172 27.8324 14.3371 27.8324Z" stroke="#0099A3" stroke-width="0.7"/>
</g>
</g>
<defs>
<clipPath id="clip0_325_2419">
<rect width="28" height="28" fill="white" transform="translate(0.25 0.300049)"/>
</clipPath>
<clipPath id="clip1_325_2419">
<rect width="28" height="28" fill="white" transform="translate(0.25 0.300049)"/>
</clipPath>
</defs>
</svg>
