<svg width="28" height="29" viewBox="0 0 28 29" fill="none" xmlns="http://www.w3.org/2000/svg">
<g opacity="0.5" clip-path="url(#clip0_325_2424)">
<g clip-path="url(#clip1_325_2424)">
<g clip-path="url(#clip2_325_2424)">
<path d="M14.0879 19.7825C16.9874 19.7825 19.3379 17.432 19.3379 14.5325C19.3379 11.633 16.9874 9.28247 14.0879 9.28247C11.1884 9.28247 8.83789 11.633 8.83789 14.5325C8.83789 17.432 11.1884 19.7825 14.0879 19.7825Z" fill="#0099A3"/>
<path d="M14.0871 27.8324C21.4325 27.8324 27.3871 21.8778 27.3871 14.5324C27.3871 7.18703 21.4325 1.23242 14.0871 1.23242C6.74172 1.23242 0.787109 7.18703 0.787109 14.5324C0.787109 21.8778 6.74172 27.8324 14.0871 27.8324Z" stroke="#0099A3" stroke-width="0.7"/>
</g>
</g>
</g>
<defs>
<clipPath id="clip0_325_2424">
<rect width="28" height="28" fill="white" transform="translate(0 0.300049)"/>
</clipPath>
<clipPath id="clip1_325_2424">
<rect width="28" height="28" fill="white" transform="translate(0 0.300049)"/>
</clipPath>
<clipPath id="clip2_325_2424">
<rect width="28" height="28" fill="white" transform="translate(0 0.300049)"/>
</clipPath>
</defs>
</svg>
