<svg width="84" height="34" viewBox="0 0 84 34" fill="none" xmlns="http://www.w3.org/2000/svg">
<g filter="url(#filter0_d_298_109)">
<rect x="1" y="1" width="81.69" height="32" rx="8" fill="white"/>
<path d="M18.8438 20.6562C18.8438 20.8231 18.7943 20.9863 18.7016 21.125C18.6088 21.2638 18.4771 21.3719 18.3229 21.4358C18.1687 21.4996 17.9991 21.5163 17.8354 21.4838C17.6717 21.4512 17.5214 21.3709 17.4034 21.2529C17.2854 21.1349 17.205 20.9845 17.1725 20.8209C17.1399 20.6572 17.1566 20.4875 17.2205 20.3334C17.2843 20.1792 17.3925 20.0474 17.5312 19.9547C17.67 19.862 17.8331 19.8125 18 19.8125C18.2238 19.8125 18.4384 19.9014 18.5966 20.0596C18.7549 20.2179 18.8438 20.4325 18.8438 20.6562ZM18 13.0625C16.4489 13.0625 15.1875 14.198 15.1875 15.5938V15.875C15.1875 16.0242 15.2468 16.1673 15.3523 16.2727C15.4577 16.3782 15.6008 16.4375 15.75 16.4375C15.8992 16.4375 16.0423 16.3782 16.1478 16.2727C16.2532 16.1673 16.3125 16.0242 16.3125 15.875V15.5938C16.3125 14.8203 17.0698 14.1875 18 14.1875C18.9302 14.1875 19.6875 14.8203 19.6875 15.5938C19.6875 16.3672 18.9302 17 18 17C17.8508 17 17.7077 17.0593 17.6023 17.1648C17.4968 17.2702 17.4375 17.4133 17.4375 17.5625V18.125C17.4375 18.2742 17.4968 18.4173 17.6023 18.5227C17.7077 18.6282 17.8508 18.6875 18 18.6875C18.1492 18.6875 18.2923 18.6282 18.3978 18.5227C18.5032 18.4173 18.5625 18.2742 18.5625 18.125V18.0744C19.845 17.8388 20.8125 16.8158 20.8125 15.5938C20.8125 14.198 19.5511 13.0625 18 13.0625ZM25.3125 17C25.3125 18.4463 24.8836 19.8601 24.0801 21.0626C23.2766 22.2651 22.1346 23.2024 20.7984 23.7559C19.4622 24.3093 17.9919 24.4541 16.5734 24.172C15.1549 23.8898 13.852 23.1934 12.8293 22.1707C11.8066 21.148 11.1102 19.8451 10.828 18.4266C10.5459 17.0081 10.6907 15.5378 11.2441 14.2016C11.7976 12.8654 12.7349 11.7234 13.9374 10.9199C15.1399 10.1164 16.5537 9.6875 18 9.6875C19.9388 9.68955 21.7975 10.4606 23.1685 11.8315C24.5394 13.2025 25.3105 15.0612 25.3125 17ZM24.1875 17C24.1875 15.7762 23.8246 14.5799 23.1447 13.5624C22.4648 12.5449 21.4985 11.7518 20.3679 11.2835C19.2372 10.8152 17.9931 10.6926 16.7929 10.9314C15.5926 11.1701 14.4901 11.7594 13.6248 12.6248C12.7594 13.4901 12.1701 14.5926 11.9314 15.7929C11.6926 16.9931 11.8152 18.2372 12.2835 19.3679C12.7518 20.4985 13.5449 21.4648 14.5624 22.1447C15.5799 22.8246 16.7762 23.1875 18 23.1875C19.6405 23.1856 21.2132 22.5331 22.3732 21.3732C23.5331 20.2132 24.1856 18.6405 24.1875 17Z" fill="#006269"/>
<path d="M36.1186 22V11.8182H42.4325V13.1406H37.6548V16.2429H41.9801V17.5604H37.6548V22H36.1186ZM43.8263 22H42.1957L45.8597 11.8182H47.6346L51.2986 22H49.668L46.7894 13.6676H46.7099L43.8263 22ZM44.0998 18.0128H49.3895V19.3054H44.0998V18.0128ZM55.9501 18.6989H57.4614L58.5254 20.0859L59.0275 20.7024L60.7228 22.9148H59.1518L58.0183 21.4382L57.6305 20.9013L55.9501 18.6989ZM61.0509 16.9091C61.0509 17.9962 60.8521 18.9309 60.4543 19.7131C60.0566 20.492 59.5114 21.0919 58.8187 21.5128C58.1293 21.9304 57.3454 22.1392 56.4671 22.1392C55.5855 22.1392 54.7983 21.9304 54.1056 21.5128C53.4162 21.0919 52.8727 20.4903 52.4749 19.7081C52.0772 18.9259 51.8783 17.9929 51.8783 16.9091C51.8783 15.822 52.0772 14.889 52.4749 14.1101C52.8727 13.3279 53.4162 12.728 54.1056 12.3104C54.7983 11.8894 55.5855 11.679 56.4671 11.679C57.3454 11.679 58.1293 11.8894 58.8187 12.3104C59.5114 12.728 60.0566 13.3279 60.4543 14.1101C60.8521 14.889 61.0509 15.822 61.0509 16.9091ZM59.5296 16.9091C59.5296 16.0805 59.3954 15.3828 59.1269 14.8161C58.8618 14.246 58.4972 13.8151 58.0332 13.5234C57.5725 13.2285 57.0505 13.081 56.4671 13.081C55.8805 13.081 55.3568 13.2285 54.8961 13.5234C54.4354 13.8151 54.0708 14.246 53.8023 14.8161C53.5372 15.3828 53.4046 16.0805 53.4046 16.9091C53.4046 17.7377 53.5372 18.437 53.8023 19.0071C54.0708 19.5739 54.4354 20.0047 54.8961 20.2997C55.3568 20.5914 55.8805 20.7372 56.4671 20.7372C57.0505 20.7372 57.5725 20.5914 58.0332 20.2997C58.4972 20.0047 58.8618 19.5739 59.1269 19.0071C59.3954 18.437 59.5296 17.7377 59.5296 16.9091ZM68.4355 14.4929C68.3825 14.0223 68.1637 13.6577 67.7792 13.3991C67.3948 13.1373 66.9109 13.0064 66.3275 13.0064C65.9099 13.0064 65.5487 13.0727 65.2437 13.2053C64.9388 13.3345 64.7018 13.5135 64.5328 13.7422C64.3671 13.9676 64.2842 14.2244 64.2842 14.5128C64.2842 14.7547 64.3406 14.9635 64.4533 15.1392C64.5693 15.3149 64.7201 15.4624 64.9057 15.5817C65.0946 15.6977 65.2968 15.7955 65.5122 15.875C65.7276 15.9512 65.9348 16.0142 66.1337 16.0639L67.128 16.3224C67.4528 16.402 67.7859 16.5097 68.1273 16.6456C68.4686 16.7815 68.7852 16.9605 69.0768 17.1825C69.3685 17.4046 69.6038 17.6797 69.7828 18.0078C69.9651 18.3359 70.0562 18.7287 70.0562 19.1861C70.0562 19.7628 69.9071 20.2749 69.6088 20.7223C69.3138 21.1697 68.8846 21.5227 68.3212 21.7812C67.761 22.0398 67.0832 22.169 66.2878 22.169C65.5255 22.169 64.8659 22.0481 64.3091 21.8061C63.7523 21.5642 63.3164 21.2211 63.0016 20.777C62.6867 20.3295 62.5127 19.7992 62.4795 19.1861H64.0207C64.0506 19.554 64.1699 19.8606 64.3787 20.1058C64.5908 20.3478 64.8609 20.5284 65.1891 20.6477C65.5205 20.7637 65.8834 20.8217 66.2778 20.8217C66.712 20.8217 67.0981 20.7538 67.4362 20.6179C67.7776 20.4787 68.0461 20.2865 68.2416 20.0412C68.4372 19.7926 68.5349 19.5026 68.5349 19.1712C68.5349 18.8696 68.4488 18.6226 68.2764 18.4304C68.1074 18.2382 67.877 18.0791 67.5854 17.9531C67.297 17.8272 66.9705 17.7161 66.606 17.62L65.4028 17.2919C64.5875 17.0698 63.9412 16.7434 63.4639 16.3125C62.9899 15.8816 62.753 15.3116 62.753 14.6023C62.753 14.0156 62.9121 13.5036 63.2302 13.0661C63.5484 12.6286 63.9793 12.2888 64.5229 12.0469C65.0664 11.8016 65.6796 11.679 66.3623 11.679C67.0517 11.679 67.6599 11.8 68.1869 12.0419C68.7172 12.2839 69.1348 12.617 69.4398 13.0412C69.7447 13.4621 69.9038 13.946 69.917 14.4929H68.4355Z" fill="#006269"/>
</g>
<defs>
<filter id="filter0_d_298_109" x="0" y="0" width="83.6895" height="34" filterUnits="userSpaceOnUse" color-interpolation-filters="sRGB">
<feFlood flood-opacity="0" result="BackgroundImageFix"/>
<feColorMatrix in="SourceAlpha" type="matrix" values="0 0 0 0 0 0 0 0 0 0 0 0 0 0 0 0 0 0 127 0" result="hardAlpha"/>
<feMorphology radius="1" operator="dilate" in="SourceAlpha" result="effect1_dropShadow_298_109"/>
<feOffset/>
<feComposite in2="hardAlpha" operator="out"/>
<feColorMatrix type="matrix" values="0 0 0 0 1 0 0 0 0 1 0 0 0 0 1 0 0 0 0.12 0"/>
<feBlend mode="normal" in2="BackgroundImageFix" result="effect1_dropShadow_298_109"/>
<feBlend mode="normal" in="SourceGraphic" in2="effect1_dropShadow_298_109" result="shape"/>
</filter>
</defs>
</svg>
